<?xml version="1.0" encoding="UTF-8" standalone="no"?>
<!-- Created with Inkscape (http://www.inkscape.org/) -->

<svg
   xmlns:dc="http://purl.org/dc/elements/1.1/"
   xmlns:cc="http://creativecommons.org/ns#"
   xmlns:rdf="http://www.w3.org/1999/02/22-rdf-syntax-ns#"
   xmlns:svg="http://www.w3.org/2000/svg"
   xmlns="http://www.w3.org/2000/svg"
   xmlns:sodipodi="http://sodipodi.sourceforge.net/DTD/sodipodi-0.dtd"
   xmlns:inkscape="http://www.inkscape.org/namespaces/inkscape"
   width="324.51321"
   height="234.65543"
   id="svg4273"
   version="1.1"
   inkscape:version="0.92.4 (5da689c313, 2019-01-14)"
   sodipodi:docname="logo.svg"
   inkscape:export-filename="C:\Logo\logo.png"
   inkscape:export-xdpi="38.844078"
   inkscape:export-ydpi="38.844078">
  <defs
     id="defs4275" />
  <sodipodi:namedview
     id="base"
     pagecolor="#ffffff"
     bordercolor="#666666"
     borderopacity="1.0"
     inkscape:pageopacity="0.0"
     inkscape:pageshadow="2"
     inkscape:zoom="1.8208162"
     inkscape:cx="96.595189"
     inkscape:cy="95.050881"
     inkscape:document-units="px"
     inkscape:current-layer="layer1"
     showgrid="false"
     inkscape:window-width="1920"
     inkscape:window-height="1001"
     inkscape:window-x="-9"
     inkscape:window-y="-9"
     inkscape:window-maximized="1"
     fit-margin-top="0"
     fit-margin-left="0"
     fit-margin-right="0"
     fit-margin-bottom="0" />
  <metadata
     id="metadata4278">
    <rdf:RDF>
      <cc:Work
         rdf:about="">
        <dc:format>image/svg+xml</dc:format>
        <dc:type
           rdf:resource="http://purl.org/dc/dcmitype/StillImage" />
        <dc:title></dc:title>
      </cc:Work>
    </rdf:RDF>
  </metadata>
  <g
     inkscape:label="Capa 1"
     inkscape:groupmode="layer"
     id="layer1"
     transform="translate(-240.97168,-665.66312)">
    <polygon
       style="fill:#d4631c"
       points="170.25,69.97 200,21.43 229.75,69.97 "
       id="polygon4289"
       transform="matrix(1.0824443,0,0,1.0824443,186.71089,666.80257)"
       inkscape:export-filename="C:\Users\jose\Dropbox\Work\Android\Logo\logo.png"
       inkscape:export-xdpi="89.510002"
       inkscape:export-ydpi="89.510002" />
    <polygon
       style="fill:#d4631c"
       points="200,102.54 170.25,72.01 229.75,72.01 "
       id="polygon4291"
       transform="matrix(1.0824443,0,0,1.0824443,186.71089,666.80257)"
       inkscape:export-filename="C:\Users\jose\Dropbox\Work\Android\Logo\logo.png"
       inkscape:export-xdpi="89.510002"
       inkscape:export-ydpi="89.510002" />
    <polygon
       style="fill:#d4631c"
       points="197.81,21.43 169.31,68.41 161.48,30.2 "
       id="polygon4293"
       transform="matrix(1.0824443,0,0,1.0824443,186.71089,666.80257)"
       inkscape:export-filename="C:\Users\jose\Dropbox\Work\Android\Logo\logo.png"
       inkscape:export-xdpi="89.510002"
       inkscape:export-ydpi="89.510002" />
    <polygon
       style="fill:#d4631c"
       points="199.06,19.24 199.06,10 161.48,28.32 "
       id="polygon4295"
       transform="matrix(1.0824443,0,0,1.0824443,186.71089,666.80257)"
       inkscape:export-filename="C:\Users\jose\Dropbox\Work\Android\Logo\logo.png"
       inkscape:export-xdpi="89.510002"
       inkscape:export-ydpi="89.510002" />
    <polygon
       style="fill:#d4631c"
       points="197.18,102.23 168.68,72.95 161.17,82.19 "
       id="polygon4297"
       transform="matrix(1.0824443,0,0,1.0824443,186.71089,666.80257)"
       inkscape:export-filename="C:\Users\jose\Dropbox\Work\Android\Logo\logo.png"
       inkscape:export-xdpi="89.510002"
       inkscape:export-ydpi="89.510002" />
    <polygon
       style="fill:#d4631c"
       points="159.93,80.98 168.07,70.49 159.93,31.65 "
       id="polygon4299"
       transform="matrix(1.0824443,0,0,1.0824443,186.71089,666.80257)"
       inkscape:export-filename="C:\Users\jose\Dropbox\Work\Android\Logo\logo.png"
       inkscape:export-xdpi="89.510002"
       inkscape:export-ydpi="89.510002" />
    <polygon
       style="fill:#d4631c"
       points="202.19,21.43 230.69,68.41 238.52,30.2 "
       id="polygon4301"
       transform="matrix(1.0824443,0,0,1.0824443,186.71089,666.80257)"
       inkscape:export-filename="C:\Users\jose\Dropbox\Work\Android\Logo\logo.png"
       inkscape:export-xdpi="89.510002"
       inkscape:export-ydpi="89.510002" />
    <polygon
       style="fill:#d4631c"
       points="200.94,19.24 200.94,10 238.52,28.32 "
       id="polygon4303"
       transform="matrix(1.0824443,0,0,1.0824443,186.71089,666.80257)"
       inkscape:export-filename="C:\Users\jose\Dropbox\Work\Android\Logo\logo.png"
       inkscape:export-xdpi="89.510002"
       inkscape:export-ydpi="89.510002" />
    <polygon
       style="fill:#d4631c"
       points="202.82,102.23 231.32,72.95 238.84,82.19 "
       id="polygon4305"
       transform="matrix(1.0824443,0,0,1.0824443,186.71089,666.80257)"
       inkscape:export-filename="C:\Users\jose\Dropbox\Work\Android\Logo\logo.png"
       inkscape:export-xdpi="89.510002"
       inkscape:export-ydpi="89.510002" />
    <polygon
       style="fill:#d4631c"
       points="240.07,80.98 231.93,70.49 240.07,31.65 "
       id="polygon4307"
       transform="matrix(1.0824443,0,0,1.0824443,186.71089,666.80257)"
       inkscape:export-filename="C:\Users\jose\Dropbox\Work\Android\Logo\logo.png"
       inkscape:export-xdpi="89.510002"
       inkscape:export-ydpi="89.510002" />
    <path
       style="fill:#d4631c;stroke-width:0.91062397"
       id="path4317"
       d="m 269.77906,842.22671 v -39.63529 h 6.31868 v 39.63529 c 0,4.68049 -1.43607,8.66955 -4.30819,11.96719 -2.87213,3.29762 -6.35058,4.94643 -10.43538,4.94643 -2.17004,0 -4.29754,-0.29786 -6.38249,-0.89355 l 0.63826,-4.97836 c 1.14885,0.7659 2.61681,1.43606 4.40392,2.01049 1.7871,0.57442 3.3189,0.86164 4.5954,0.86164 1.44669,-0.89354 2.67,-2.67001 3.66993,-5.32938 0.99992,-2.65938 1.49988,-5.52086 1.49988,-8.58446 z"
       inkscape:connector-curvature="0"
       inkscape:export-filename="C:\Users\jose\Dropbox\Work\Android\Logo\logo.png"
       inkscape:export-xdpi="89.510002"
       inkscape:export-ydpi="89.510002" />
    <polygon
       style="fill:#d4631c"
       id="polygon4319"
       points="145.56,121.64 147.38,154.2 142.37,154.2 141.04,126.22 140.84,126.22 128.45,154.2 127.76,154.2 115.61,127.35 115.42,127.35 114.09,154.2 111.93,154.2 113.75,121.64 118.32,121.64 129.68,146.48 140.55,121.64 "
       transform="matrix(1.2978899,0,0,1.2978899,143.14843,644.71078)"
       inkscape:export-filename="C:\Users\jose\Dropbox\Work\Android\Logo\logo.png"
       inkscape:export-xdpi="89.510002"
       inkscape:export-ydpi="89.510002" />
    <path
       style="fill:#d4631c;stroke-width:0.91062397"
       id="path4321"
       d="m 364.87824,801.82552 c 5.53148,0 10.10561,1.819 13.72235,5.45703 3.61675,3.63802 5.42512,8.69082 5.42512,15.15842 0,4.1699 -0.72336,7.81855 -2.17005,10.94597 -1.4467,3.12742 -3.34017,5.54213 -5.68042,7.24413 -4.55284,3.3189 -9.57375,4.97835 -15.06269,4.97835 -5.48895,0 -10.03116,-1.84029 -13.62662,-5.52086 -3.59547,-3.68057 -5.39322,-8.75466 -5.39322,-15.22225 0,-3.36144 0.47869,-6.39314 1.43607,-9.09506 0.95737,-2.70192 2.2126,-4.90388 3.76567,-6.60588 1.55306,-1.702 3.35082,-3.12743 5.39321,-4.27628 3.7444,-2.04239 7.80792,-3.06358 12.19056,-3.06358 z m -12.82883,35.74196 c 1.10629,1.8722 2.59554,3.32953 4.46774,4.37201 1.87219,1.04248 4.03161,1.56371 6.47823,1.56371 2.44663,0 4.6273,-0.61698 6.54205,-1.85092 1.91475,-1.23394 3.40401,-2.85084 4.46774,-4.85069 2.17006,-3.9997 3.25507,-8.29724 3.25507,-12.89264 0,-5.65916 -1.12756,-10.212 -3.38271,-13.65854 -2.51044,-3.87206 -6.65907,-5.80808 -12.44587,-5.80808 -4.12734,1.4467 -7.25476,3.93588 -9.38227,7.46752 -2.1275,3.53164 -3.19124,7.53134 -3.19124,11.99908 0,5.44641 1.06374,9.99924 3.19124,13.65854 z"
       y="0"
       x="0"
       inkscape:connector-curvature="0"
       inkscape:export-filename="C:\Users\jose\Dropbox\Work\Android\Logo\logo.png"
       inkscape:export-xdpi="89.510002"
       inkscape:export-ydpi="89.510002" />
    <path
       style="fill:#d4631c;stroke-width:0.91062397"
       id="path4323"
       d="m 398.19485,824.67486 v 20.16867 H 391.94 v -42.25211 h 13.78619 c 4.29755,0 7.81856,0.95738 10.56303,2.87213 2.74447,1.91475 4.11672,4.43584 4.11672,7.56326 0,3.12742 -1.09567,5.59532 -3.28698,7.4037 -2.19133,1.80837 -5.15919,3.05296 -8.90358,3.73376 l 17.10507,20.67926 -7.4037,0.89355 -14.80738,-21.06222 z m 0,-1.91475 h 4.0848 c 7.65898,0 11.48848,-3.02105 11.48848,-9.06314 0,-1.0212 -0.25529,-2.17005 -0.76589,-3.44655 -0.97864,-2.68065 -3.06359,-4.44647 -6.25484,-5.29747 -2.8934,0 -5.74425,0.36167 -8.55254,1.08502 z"
       y="0"
       x="0"
       inkscape:connector-curvature="0"
       inkscape:export-filename="C:\Users\jose\Dropbox\Work\Android\Logo\logo.png"
       inkscape:export-xdpi="89.510002"
       inkscape:export-ydpi="89.510002" />
    <path
       style="fill:#d4631c;stroke-width:0.91062397"
       id="path4325"
       d="m 432.66031,844.84353 v -42.25211 h 25.59381 l -0.63825,4.27627 -11.87145,-1.97857 c -2.08495,0 -4.38265,0.36167 -6.8931,1.08503 v 15.50945 h 14.16915 v 2.42536 h -14.16915 v 18.63688 l 19.78574,-1.97858 -0.63825,4.27627 z"
       inkscape:connector-curvature="0"
       inkscape:export-filename="C:\Users\jose\Dropbox\Work\Android\Logo\logo.png"
       inkscape:export-xdpi="89.510002"
       inkscape:export-ydpi="89.510002" />
    <polygon
       style="fill:#d4631c"
       id="polygon4327"
       points="252.86,154.2 250.7,154.2 250.7,121.64 254.34,121.64 273.08,145.3 273.27,145.3 273.27,121.64 275.44,121.64 275.44,154.74 274.6,154.74 253.06,127.79 252.86,127.79 "
       transform="matrix(1.2978899,0,0,1.2978899,143.14843,644.71078)"
       inkscape:export-filename="C:\Users\jose\Dropbox\Work\Android\Logo\logo.png"
       inkscape:export-xdpi="89.510002"
       inkscape:export-ydpi="89.510002" />
    <path
       style="fill:#d4631c;stroke-width:0.91062397"
       id="path4329"
       d="m 531.33366,801.82552 c 5.5315,0 10.10565,1.819 13.72238,5.45703 3.61672,3.63802 5.42513,8.69082 5.42513,15.15842 0,4.1699 -0.7234,7.81855 -2.17011,10.94597 -1.44661,3.12742 -3.34016,5.54213 -5.68038,7.24413 -4.55284,3.3189 -9.57375,4.97835 -15.06272,4.97835 -5.48888,0 -10.03113,-1.84029 -13.6266,-5.52086 -3.59546,-3.68057 -5.39322,-8.75466 -5.39322,-15.22225 0,-3.36144 0.47869,-6.39314 1.43606,-9.09506 0.95738,-2.70192 2.21261,-4.90388 3.76568,-6.60588 1.55307,-1.702 3.35081,-3.12743 5.39322,-4.27628 3.74444,-2.04239 7.80791,-3.06358 12.19056,-3.06358 z m -12.8288,35.74196 c 1.10629,1.8722 2.59554,3.32953 4.46773,4.37201 1.87224,1.04248 4.0316,1.56371 6.47827,1.56371 2.44657,0 4.62724,-0.61698 6.54201,-1.85092 1.91477,-1.23394 3.40401,-2.85084 4.4678,-4.85069 2.17001,-3.9997 3.25502,-8.29724 3.25502,-12.89264 0,-5.65916 -1.12753,-10.212 -3.38269,-13.65854 -2.5105,-3.87206 -6.65912,-5.80808 -12.44586,-5.80808 -4.12741,1.4467 -7.2548,3.93588 -9.3823,7.46752 -2.1275,3.53164 -3.19125,7.53134 -3.19125,11.99908 0,5.44641 1.06375,9.99924 3.19125,13.65854 z"
       y="0"
       x="0"
       inkscape:connector-curvature="0"
       inkscape:export-filename="C:\Users\jose\Dropbox\Work\Android\Logo\logo.png"
       inkscape:export-xdpi="89.510002"
       inkscape:export-ydpi="89.510002" />
    <path
       style="fill:#d4631c;stroke-width:0.91062397"
       inkscape:connector-curvature="0"
       d="m 273.23838,879.93625 h 3.71461 v 10.07158 c -2.19557,0.86801 -4.83793,1.30203 -7.92706,1.30203 -3.7529,0 -6.98244,-0.99566 -9.68863,-2.98701 -1.32756,-0.99565 -2.38705,-2.30407 -3.17848,-3.92522 -0.79142,-1.62116 -1.18714,-3.41464 -1.18714,-5.38045 0,-1.96581 0.30636,-3.73375 0.91907,-5.30385 0.61273,-1.5701 1.41054,-2.8785 2.39344,-3.92523 0.98291,-1.04674 2.12538,-1.94029 3.42741,-2.68065 2.42536,-1.37862 5.09323,-2.06793 8.00365,-2.06793 1.12331,0 2.33599,0.12771 3.63802,0.38295 1.30203,0.2553 2.2977,0.52337 2.987,0.8042 l -0.38295,2.56575 c -3.44655,-1.4552 -6.30591,-2.18282 -8.57807,-2.18282 -2.57853,0.66378 -4.61454,2.02963 -6.10805,4.09755 -1.49351,2.06794 -2.24026,4.5954 -2.24026,7.58241 0,3.72737 0.9829,6.60588 2.94871,8.63551 1.96581,2.02963 4.5571,3.04445 7.77388,3.04445 1.2765,0 2.43811,-0.12758 3.48485,-0.38296 z"
       id="path4335"
       inkscape:export-filename="C:\Users\jose\Dropbox\Work\Android\Logo\logo.png"
       inkscape:export-xdpi="89.510002"
       inkscape:export-ydpi="89.510002" />
    <path
       style="fill:#d4631c;stroke-width:0.91062397"
       inkscape:connector-curvature="0"
       x="0"
       y="0"
       d="m 324.60788,890.85032 11.3736,-25.96398 h 0.57443 l 11.37361,25.96398 h -4.17416 l -2.87211,-6.8931 h -11.3736 l -2.83385,6.8931 z m 5.47618,-8.3483 h 10.18647 l -5.05495,-12.40757 z"
       id="path4337"
       inkscape:export-filename="C:\Users\jose\Dropbox\Work\Android\Logo\logo.png"
       inkscape:export-xdpi="89.510002"
       inkscape:export-ydpi="89.510002" />
    <polygon
       style="fill:#d4631c"
       points="205.15,185.01 211.67,170.11 214.68,170.11 215.77,189.65 212.76,189.65 211.96,172.86 211.85,172.86 204.41,189.65 204,189.65 196.71,173.54 196.59,173.54 195.8,189.65 194.5,189.65 195.59,170.11 198.33,170.11 "
       id="polygon4339"
       transform="matrix(1.2978899,0,0,1.2978899,143.14843,644.71078)"
       inkscape:export-filename="C:\Users\jose\Dropbox\Work\Android\Logo\logo.png"
       inkscape:export-xdpi="89.510002"
       inkscape:export-ydpi="89.510002" />
    <path
       style="fill:#d4631c;stroke-width:0.91062397"
       inkscape:connector-curvature="0"
       d="m 470.84998,890.85032 v -25.35126 h 15.35626 l -0.38294,2.56576 -7.12287,-1.18714 c -1.25097,0 -2.62959,0.21701 -4.13585,0.65101 v 9.30568 h 8.50148 v 1.4552 h -8.50148 v 11.18213 l 11.87144,-1.18715 -0.38296,2.56577 z"
       id="path4341"
       inkscape:export-filename="C:\Users\jose\Dropbox\Work\Android\Logo\logo.png"
       inkscape:export-xdpi="89.510002"
       inkscape:export-ydpi="89.510002" />
    <path
       style="fill:#d4631c;stroke-width:0.91062397"
       inkscape:connector-curvature="0"
       d="m 537.6523,869.90297 c 0,1.12333 0.44047,2.16366 1.32123,3.12104 0.88075,0.95737 1.95301,1.79985 3.21678,2.52747 1.26376,0.72761 2.52106,1.46798 3.77207,2.2211 1.25093,0.75314 2.31681,1.6786 3.19757,2.77639 0.88084,1.09779 1.32122,2.31046 1.32122,3.63802 0,2.09345 -0.7723,3.80397 -2.3169,5.13152 -1.54451,1.32756 -3.63157,1.99134 -6.26118,1.99134 -2.6296,0 -5.23362,-0.49783 -7.81215,-1.49351 v -1.79985 c 2.60402,1.30203 4.81875,1.95304 6.6441,1.95304 1.82543,0 3.24874,-0.44677 4.26991,-1.34031 1.02118,-0.89355 1.53185,-2.13177 1.53185,-3.71462 0,-1.07226 -0.42125,-2.04879 -1.26376,-2.92957 -0.84251,-0.88079 -1.86368,-1.64669 -3.06361,-2.2977 -1.19993,-0.651 -2.39977,-1.32117 -3.5997,-2.01048 -1.19993,-0.68931 -2.2211,-1.56371 -3.06361,-2.62321 -0.84251,-1.05949 -1.26376,-2.34238 -1.26376,-3.84864 0,-1.50626 0.67022,-2.91041 2.01056,-4.21245 1.34026,-1.30202 3.33799,-1.95303 5.99309,-1.95303 1.73611,0 3.93162,0.39571 6.58682,1.18713 l -0.38301,2.60407 c -3.44653,-1.48074 -6.39522,-2.2211 -8.84617,-2.2211 -1.3275,0.63825 -1.99135,1.73604 -1.99135,3.29336 z"
       id="path4343"
       inkscape:export-filename="C:\Users\jose\Dropbox\Work\Android\Logo\logo.png"
       inkscape:export-xdpi="89.510002"
       inkscape:export-ydpi="89.510002" />
    <rect
       style="opacity:1;fill:#3cffff;fill-opacity:0;stroke:none;stroke-width:3.44172835;stroke-miterlimit:4;stroke-dasharray:none;stroke-opacity:1"
       id="rect835"
       width="296.07019"
       height="215.05098"
       x="255.4718"
       y="677.25909" />
  </g>
</svg>
