<?xml version="1.0" encoding="UTF-8" standalone="no"?>
<!-- Created with Inkscape (http://www.inkscape.org/) -->

<svg
   xmlns:dc="http://purl.org/dc/elements/1.1/"
   xmlns:cc="http://creativecommons.org/ns#"
   xmlns:rdf="http://www.w3.org/1999/02/22-rdf-syntax-ns#"
   xmlns:svg="http://www.w3.org/2000/svg"
   xmlns="http://www.w3.org/2000/svg"
   xmlns:sodipodi="http://sodipodi.sourceforge.net/DTD/sodipodi-0.dtd"
   xmlns:inkscape="http://www.inkscape.org/namespaces/inkscape"
   width="97.060104mm"
   height="115.04983mm"
   viewBox="0 0 97.060104 115.04983"
   version="1.1"
   id="svg8"
   inkscape:version="0.92.4 (5da689c313, 2019-01-14)"
   sodipodi:docname="hacker - copia.svg">
  <defs
     id="defs2">
    <clipPath
       id="clipPath3729"
       clipPathUnits="userSpaceOnUse">
      <path
         inkscape:connector-curvature="0"
         id="path3727"
         d="M 0,500 H 500 V 0 H 0 Z" />
    </clipPath>
    <clipPath
       id="clipPath3741"
       clipPathUnits="userSpaceOnUse">
      <path
         inkscape:connector-curvature="0"
         id="path3739"
         d="M 0,500 H 500 V 0 H 0 Z" />
    </clipPath>
    <clipPath
       id="clipPath3855"
       clipPathUnits="userSpaceOnUse">
      <path
         inkscape:connector-curvature="0"
         id="path3853"
         d="M 0,500 H 500 V 0 H 0 Z" />
    </clipPath>
  </defs>
  <sodipodi:namedview
     id="base"
     pagecolor="#ffffff"
     bordercolor="#666666"
     borderopacity="1.0"
     inkscape:pageopacity="0.0"
     inkscape:pageshadow="2"
     inkscape:zoom="0.98994949"
     inkscape:cx="200.66506"
     inkscape:cy="275.96741"
     inkscape:document-units="mm"
     inkscape:current-layer="layer1"
     showgrid="false"
     inkscape:window-width="1920"
     inkscape:window-height="1001"
     inkscape:window-x="-9"
     inkscape:window-y="-9"
     inkscape:window-maximized="1"
     fit-margin-top="0"
     fit-margin-left="0"
     fit-margin-right="0"
     fit-margin-bottom="0" />
  <metadata
     id="metadata5">
    <rdf:RDF>
      <cc:Work
         rdf:about="">
        <dc:format>image/svg+xml</dc:format>
        <dc:type
           rdf:resource="http://purl.org/dc/dcmitype/StillImage" />
        <dc:title></dc:title>
      </cc:Work>
    </rdf:RDF>
  </metadata>
  <g
     inkscape:label="Capa 1"
     inkscape:groupmode="layer"
     id="layer1"
     transform="translate(-54.181009,-77.483194)">
    <g
       id="g4582">
      <path
         d="m 102.74383,77.488484 c -0.0353,0 -0.0706,0.0049 -0.10619,0.01023 v -0.01552 c 0.0356,0 0.0709,0.0053 0.10619,0.0053"
         style="fill:#494949;fill-opacity:1;fill-rule:nonzero;stroke:none;stroke-width:0.35277778"
         id="path3745"
         inkscape:connector-curvature="0" />
      <path
         d="m 132.08641,118.00903 c -0.98954,8.7951 -11.72774,20.38703 -11.72774,20.38703 H 102.63758 V 82.178803 c 0.0254,0 0.066,0.0049 0.13159,0.0099 0.0402,-0.0049 0.0705,-0.0099 0.0861,-0.0099 h 0.0148 v 0.02011 c 1.34303,0.100895 7.92621,0.837848 13.45001,5.210175 2.0394,1.620661 4.0386,3.579283 5.88645,5.750631 3.86185,7.416091 6.28579,15.509171 8.86001,19.528011 0.98002,1.52471 1.24213,3.35245 1.01988,5.3213"
         style="fill:#494949;fill-opacity:1;fill-rule:nonzero;stroke:none;stroke-width:0.35277778"
         id="path3749"
         inkscape:connector-curvature="0" />
      <path
         d="m 102.76934,82.188824 c 0.0402,-0.0049 0.0702,-0.0099 0.0857,-0.0099 V 138.39585 H 85.134332 c 0,0 -11.359444,-11.59193 -12.576527,-20.39197 -0.272698,-1.96356 -0.04022,-3.79165 0.939094,-5.31636 2.352675,-3.66995 4.761089,-10.7382 8.269816,-17.589146 2.297289,-2.968625 4.831645,-5.644445 7.386109,-7.669036 5.523441,-4.377267 12.121796,-5.12445 13.469756,-5.230283 v -0.02011 h 0.0152 c 0.0251,0 0.0656,0.0049 0.13159,0.0099"
         style="fill:#494949;fill-opacity:1;fill-rule:nonzero;stroke:none;stroke-width:0.35277778"
         id="path3753"
         inkscape:connector-curvature="0" />
      <path
         d="m 102.8551,77.483333 v 0.01517 c -0.0356,-0.0053 -0.0709,-0.0099 -0.11112,-0.0099 0.0353,0 0.0755,-0.0053 0.11112,-0.0053"
         style="fill:#494949;fill-opacity:1;fill-rule:nonzero;stroke:none;stroke-width:0.35277778"
         id="path3757"
         inkscape:connector-curvature="0" />
      <path
         inkscape:connector-curvature="0"
         id="path3759"
         style="fill:#ff926e;fill-opacity:1;fill-rule:nonzero;stroke:none;stroke-width:0.35277778"
         d="M 108.31567,128.02274 H 96.9079 v 19.3368 h 11.40777 z" />
      <path
         d="m 108.34178,142.79837 c 0,1.18745 -2.52095,2.15159 -5.63104,2.15159 -3.110088,0 -5.803193,-1.41817 -5.803193,-2.60667 0,-1.18922 2.693105,-1.69757 5.803193,-1.69757 3.11009,0 5.63104,0.96414 5.63104,2.15265"
         style="fill:#ff926e;fill-opacity:1;fill-rule:nonzero;stroke:none;stroke-width:0.35277778"
         id="path3763"
         inkscape:connector-curvature="0" />
      <path
         d="m 151.24111,173.06424 c -1.65488,1.31339 -17.18275,11.81982 -18.98156,12.93883 -3.05576,1.90782 -6.38739,-19.26449 -9.80123,-17.97791 -6.11046,2.30152 -12.73421,3.56482 -19.64901,3.56482 -7.045327,0 -13.785851,-1.30598 -19.994035,-3.69429 -3.306233,-1.27035 -6.351763,19.84552 -9.323211,17.99273 -1.949802,-1.21038 -17.532349,-10.15259 -19.311055,-11.59334 2.4384,-8.28498 18.610792,-35.34233 19.964047,-35.94558 4.465814,-1.95651 22.761575,-7.15575 22.761575,-7.15575 0,0 11.340039,0.73978 11.407069,0.79022 0.004,0 18.94558,3.55495 22.98876,6.36553 1.74273,1.20685 18.06575,27.18011 19.93865,34.71474"
         style="fill:#494949;fill-opacity:1;fill-rule:nonzero;stroke:none;stroke-width:0.35277778"
         id="path3767"
         inkscape:connector-curvature="0" />
      <path
         d="m 92.05456,114.38015 c 0,2.61655 -2.027414,4.73569 -4.527903,4.73569 -2.501194,0 -5.239455,-3.12103 -5.239455,-5.73687 0,-2.6155 0.901347,-3.73627 3.401836,-3.73627 2.501194,0 6.365522,2.1216 6.365522,4.73745"
         style="fill:#ff926e;fill-opacity:1;fill-rule:nonzero;stroke:none;stroke-width:0.35277778"
         id="path3771"
         inkscape:connector-curvature="0" />
      <path
         d="m 114.20223,114.38015 c 0,2.61655 2.02706,4.73569 4.5272,4.73569 2.5019,0 5.24086,-3.12103 5.24086,-5.73687 0,-2.6155 -0.90205,-3.73627 -3.40148,-3.73627 -2.50225,0 -6.36658,2.1216 -6.36658,4.73745"
         style="fill:#ff926e;fill-opacity:1;fill-rule:nonzero;stroke:none;stroke-width:0.35277778"
         id="path3775"
         inkscape:connector-curvature="0" />
      <path
         d="m 121.16853,106.84175 c 0,13.22564 -8.0204,26.75184 -17.91406,26.75184 -9.894706,0 -17.915461,-13.5262 -17.915461,-26.75184 0,-13.227755 8.020755,-21.147969 17.915461,-21.147969 9.89366,0 17.91406,7.920214 17.91406,21.147969"
         style="fill:#ff9f80;fill-opacity:1;fill-rule:nonzero;stroke:none;stroke-width:0.35277778"
         id="path3779"
         inkscape:connector-curvature="0" />
      <path
         d="m 120.268,109.37871 h -17.01412 v -0.0198 H 86.239762 c 0,0 -0.657578,5.1114 1.414991,9.75255 0,0 4.012495,1.43862 13.478577,-2.60033 0,0 1.16981,-0.5468 2.12055,-0.50482 v 0.0198 c 0.95038,-0.0416 2.1202,0.50483 2.1202,0.50483 9.46679,4.03895 13.47893,2.60032 13.47893,2.60032 2.07257,-4.64114 1.41499,-9.75254 1.41499,-9.75254"
         style="fill:#494949;fill-opacity:1;fill-rule:nonzero;stroke:none;stroke-width:0.35277778"
         id="path3783"
         inkscape:connector-curvature="0" />
      <path
         d="m 102.87009,79.846168 v -0.02152 h -0.0148 c -0.0155,0 -0.0459,0.0053 -0.0861,0.01058 -0.0656,-0.0053 -0.10619,-0.01058 -0.13159,-0.01058 h -0.0148 v 0.02152 c -19.496261,2.332567 -31.261399,32.463672 -30.170963,38.188192 0,0 0.03528,-0.0109 0.106186,-0.0321 1.04528,-0.32315 9.860139,-2.84621 30.079597,-3.40572 h 0.11148 0.10618 c 20.37574,0.56445 28.38768,3.12032 29.23117,3.41066 0.0508,0.0162 0.0759,0.0272 0.0759,0.0272 1.32291,-7.41398 -10.99362,-38.882811 -29.2922,-38.188192"
         style="fill:#636363;fill-opacity:1;fill-rule:nonzero;stroke:none;stroke-width:0.35277778"
         id="path3787"
         inkscape:connector-curvature="0" />
      <path
         inkscape:connector-curvature="0"
         id="path3789"
         style="fill:#494949;fill-opacity:1;fill-rule:nonzero;stroke:none;stroke-width:0.35277778"
         d="M 132.89723,185.29762 H 71.467684 v 6.18313 h 61.429546 z" />
      <path
         d="m 135.33133,187.18635 c 0,1.15288 -0.94262,2.09479 -2.09444,2.09479 H 72.013718 c -1.152173,0 -2.094795,-0.94191 -2.094795,-2.09479 v -33.84479 c 0,-1.15147 0.942622,-2.09445 2.094795,-2.09445 h 61.223172 c 1.15182,0 2.09444,0.94298 2.09444,2.09445 z"
         style="fill:#636363;fill-opacity:1;fill-rule:nonzero;stroke:none;stroke-width:0.35277778"
         id="path3793"
         inkscape:connector-curvature="0" />
      <path
         d="m 135.33133,191.48104 c 0,0.58032 -0.47096,1.05198 -1.05234,1.05198 H 70.971259 c -0.581378,0 -1.052336,-0.47166 -1.052336,-1.05198 0,-0.58173 0.470958,-1.05304 1.052336,-1.05304 h 63.307731 c 0.58138,0 1.05234,0.47131 1.05234,1.05304"
         style="fill:#636363;fill-opacity:1;fill-rule:nonzero;stroke:none;stroke-width:0.35277778"
         id="path3797"
         inkscape:connector-curvature="0" />
      <path
         d="m 107.89047,171.23558 c 0,2.92841 -2.37349,5.3019 -5.30154,5.3019 -2.928413,0 -5.301549,-2.37349 -5.301549,-5.3019 0,-2.92806 2.373136,-5.30154 5.301549,-5.30154 2.92805,0 5.30154,2.37348 5.30154,5.30154"
         style="fill:#ffffff;fill-opacity:1;fill-rule:nonzero;stroke:none;stroke-width:0.35277778"
         id="path3801"
         inkscape:connector-curvature="0" />
      <path
         inkscape:connector-curvature="0"
         id="path3803"
         style="fill:#ffffff;fill-opacity:1;fill-rule:nonzero;stroke:none;stroke-width:0.35277778"
         d="m 105.68078,177.3774 h -6.183138 v -4.2418 h 6.183138 z" />
      <path
         d="m 102.18743,171.44918 c 0,0.89147 -0.72319,1.61502 -1.61572,1.61502 -0.891824,0 -1.615372,-0.72355 -1.615372,-1.61502 0,-0.89217 0.723548,-1.61572 1.615372,-1.61572 0.89253,0 1.61572,0.72355 1.61572,1.61572"
         style="fill:#636363;fill-opacity:1;fill-rule:nonzero;stroke:none;stroke-width:0.35277778"
         id="path3807"
         inkscape:connector-curvature="0" />
      <path
         d="m 106.29401,171.44918 c 0,0.89147 -0.72319,1.61502 -1.61537,1.61502 -0.89217,0 -1.61572,-0.72355 -1.61572,-1.61502 0,-0.89217 0.72355,-1.61572 1.61572,-1.61572 0.89218,0 1.61537,0.72355 1.61537,1.61572"
         style="fill:#636363;fill-opacity:1;fill-rule:nonzero;stroke:none;stroke-width:0.35277778"
         id="path3811"
         inkscape:connector-curvature="0" />
      <path
         d="m 102.52144,174.67791 c 0,0.21096 -0.1711,0.38171 -0.38206,0.38171 -0.21096,0 -0.38241,-0.17075 -0.38241,-0.38171 0,-0.21237 0.17145,-0.38276 0.38241,-0.38276 0.21096,0 0.38206,0.17039 0.38206,0.38276"
         style="fill:#636363;fill-opacity:1;fill-rule:nonzero;stroke:none;stroke-width:0.35277778"
         id="path3815"
         inkscape:connector-curvature="0" />
      <path
         d="m 103.49331,174.67791 c 0,0.21096 -0.1711,0.38171 -0.38206,0.38171 -0.21131,0 -0.38241,-0.17075 -0.38241,-0.38171 0,-0.21237 0.1711,-0.38276 0.38241,-0.38276 0.21096,0 0.38206,0.17039 0.38206,0.38276"
         style="fill:#636363;fill-opacity:1;fill-rule:nonzero;stroke:none;stroke-width:0.35277778"
         id="path3819"
         inkscape:connector-curvature="0" />
      <path
         d="m 101.26795,176.79148 c 0,-0.24447 -0.19826,-0.44274 -0.44274,-0.44274 -0.24412,0 -0.44238,0.19827 -0.44238,0.44274 v 0.7747 c 0,0.24412 0.19826,0.44203 0.44238,0.44203 0.24448,0 0.44274,-0.19791 0.44274,-0.44203 z"
         style="fill:#636363;fill-opacity:1;fill-rule:nonzero;stroke:none;stroke-width:0.35277778"
         id="path3823"
         inkscape:connector-curvature="0" />
      <path
         d="m 100.38273,176.75013 c 0,-0.24447 -0.19826,-0.44203 -0.442736,-0.44203 -0.244122,0 -0.442383,0.19756 -0.442383,0.44203 v 0.77505 c 0,0.24483 0.198261,0.44274 0.442383,0.44274 0.244476,0 0.442736,-0.19791 0.442736,-0.44274 z"
         style="fill:#ffffff;fill-opacity:1;fill-rule:nonzero;stroke:none;stroke-width:0.35277778"
         id="path3827"
         inkscape:connector-curvature="0" />
      <path
         d="m 103.03805,176.79148 c 0,-0.24447 -0.19826,-0.44274 -0.44238,-0.44274 -0.24448,0 -0.44274,0.19827 -0.44274,0.44274 v 0.7747 c 0,0.24412 0.19826,0.44203 0.44274,0.44203 0.24412,0 0.44238,-0.19791 0.44238,-0.44203 z"
         style="fill:#636363;fill-opacity:1;fill-rule:nonzero;stroke:none;stroke-width:0.35277778"
         id="path3831"
         inkscape:connector-curvature="0" />
      <path
         d="m 102.153,176.75013 c 0,-0.24447 -0.19826,-0.44203 -0.44238,-0.44203 -0.24448,0 -0.44274,0.19756 -0.44274,0.44203 v 0.77505 c 0,0.24483 0.19826,0.44274 0.44274,0.44274 0.24412,0 0.44238,-0.19791 0.44238,-0.44274 z"
         style="fill:#ffffff;fill-opacity:1;fill-rule:nonzero;stroke:none;stroke-width:0.35277778"
         id="path3835"
         inkscape:connector-curvature="0" />
      <path
         d="m 104.80882,176.80354 c 0,-0.24447 -0.19826,-0.44309 -0.44309,-0.44309 -0.24412,0 -0.44238,0.19862 -0.44238,0.44309 v 0.7747 c 0,0.24412 0.19826,0.44203 0.44238,0.44203 0.24483,0 0.44309,-0.19791 0.44309,-0.44203 z"
         style="fill:#636363;fill-opacity:1;fill-rule:nonzero;stroke:none;stroke-width:0.35277778"
         id="path3839"
         inkscape:connector-curvature="0" />
      <path
         d="m 103.92327,176.76219 c 0,-0.24447 -0.19826,-0.44274 -0.44238,-0.44274 -0.24448,0 -0.44274,0.19827 -0.44274,0.44274 v 0.77399 c 0,0.24483 0.19826,0.44274 0.44274,0.44274 0.24412,0 0.44238,-0.19791 0.44238,-0.44274 z"
         style="fill:#ffffff;fill-opacity:1;fill-rule:nonzero;stroke:none;stroke-width:0.35277778"
         id="path3843"
         inkscape:connector-curvature="0" />
      <path
         d="m 105.69351,176.76219 c 0,-0.24447 -0.19826,-0.44274 -0.44238,-0.44274 -0.24413,0 -0.44239,0.19827 -0.44239,0.44274 v 0.77399 c 0,0.24483 0.19826,0.44274 0.44239,0.44274 0.24412,0 0.44238,-0.19791 0.44238,-0.44274 z"
         style="fill:#ffffff;fill-opacity:1;fill-rule:nonzero;stroke:none;stroke-width:0.35277778"
         id="path3847"
         inkscape:connector-curvature="0" />
    </g>
  </g>
</svg>
