<svg id="Capa_1" enable-background="new 0 0 512 512" height="512" viewBox="0 0 512 512" width="512" xmlns="http://www.w3.org/2000/svg"><g><g><path d="m391.18 37.441v437.117c0 20.678-16.763 37.441-37.431 37.441h-195.497c-20.668 0-37.431-16.763-37.431-37.441v-437.117c0-20.678 16.763-37.441 37.431-37.441h195.497c20.668 0 37.431 16.763 37.431 37.441z" fill="#d4f2f6"/><path d="m391.18 37.441v437.117c0 20.678-16.763 37.441-37.431 37.441h-20.606c20.668 0 37.431-16.763 37.431-37.441v-437.117c0-20.678-16.763-37.441-37.431-37.441h20.606c20.668 0 37.431 16.763 37.431 37.441z" fill="#a6e7f0"/><path d="m391.18 440.528v34.031c0 20.678-16.763 37.441-37.431 37.441h-195.497c-20.668 0-37.431-16.763-37.431-37.441v-34.031z" fill="#8d9ca8"/><path d="m391.18 440.528v34.031c0 20.678-16.763 37.441-37.431 37.441h-20.606c20.668 0 37.431-16.763 37.431-37.441v-34.031z" fill="#7a8c98"/></g><g><g><g><g><path d="m450.278 295.83c-2.144 0-4.274-.909-5.766-2.675-2.688-3.182-2.287-7.942.895-10.63 13.049-11.023 20.533-27.131 20.533-44.194 0-17.421-7.744-33.745-21.247-44.787-3.224-2.637-3.701-7.389-1.064-10.614 2.638-3.223 7.391-3.7 10.614-1.064 17.021 13.918 26.783 34.499 26.783 56.465 0 21.514-9.435 41.823-25.884 55.719-1.417 1.195-3.145 1.78-4.864 1.78z" fill="#8d9ca8"/></g><g><path d="m433.668 263.793c-2.144 0-4.274-.909-5.766-2.675-2.688-3.183-2.287-7.942.895-10.63 3.654-3.086 5.749-7.594 5.749-12.37 0-4.875-2.169-9.445-5.949-12.537-3.224-2.637-3.701-7.389-1.064-10.614 2.639-3.224 7.392-3.699 10.614-1.064 7.298 5.969 11.484 14.794 11.484 24.215 0 9.227-4.046 17.937-11.099 23.895-1.417 1.195-3.145 1.78-4.864 1.78z" fill="#8d9ca8"/></g></g></g><g><g><g><path d="m61.722 295.83c-1.719 0-3.447-.584-4.864-1.781-16.45-13.896-25.884-34.205-25.884-55.719 0-21.965 9.762-42.546 26.782-56.465 3.225-2.638 7.978-2.16 10.614 1.064 2.638 3.225 2.161 7.977-1.064 10.614-13.501 11.042-21.246 27.367-21.246 44.787 0 17.063 7.484 33.171 20.533 44.194 3.182 2.688 3.583 7.448.895 10.63-1.492 1.766-3.622 2.676-5.766 2.676z" fill="#8d9ca8"/></g><g><path d="m78.333 263.793c-1.719 0-3.447-.584-4.863-1.781-7.054-5.958-11.1-14.668-11.1-23.895 0-9.421 4.186-18.248 11.485-24.215 3.224-2.638 7.977-2.16 10.614 1.064 2.637 3.225 2.16 7.977-1.065 10.614-3.78 3.092-5.948 7.661-5.948 12.537 0 4.776 2.095 9.284 5.748 12.37 3.183 2.688 3.583 7.447.895 10.63-1.492 1.766-3.622 2.676-5.766 2.676z" fill="#8d9ca8"/></g></g></g></g><path d="m275.23 137.444h-41.412c-8.232 0-15.173 6.134-16.186 14.303l-10.163 71.984h36.718 20.673 36.718l-10.163-71.984c-1.012-8.169-7.953-14.303-16.185-14.303z" fill="#ee6161"/><path d="m301.581 223.731h-20.647l-10.159-71.987c-1.01-8.171-7.954-14.301-16.186-14.301h20.637c8.232 0 15.177 6.13 16.186 14.301z" fill="#e94444"/><g><g><g><path d="m254.761 111.113c-4.166 0-7.543-3.377-7.543-7.543v-15.499c0-4.166 3.377-7.543 7.543-7.543s7.543 3.377 7.543 7.543v15.499c0 4.167-3.377 7.543-7.543 7.543z" fill="#ee6161"/></g></g><g><g><path d="m209.461 125.4c-2.378 0-4.718-1.122-6.185-3.218l-8.89-12.696c-2.39-3.412-1.56-8.116 1.852-10.505 3.413-2.39 8.116-1.561 10.505 1.852l8.89 12.696c2.39 3.412 1.56 8.116-1.852 10.505-1.316.923-2.825 1.366-4.32 1.366z" fill="#ee6161"/></g></g><g><g><path d="m180.535 163.088c-.856 0-1.728-.147-2.579-.457l-14.565-5.301c-3.915-1.425-5.933-5.753-4.509-9.667 1.425-3.915 5.753-5.931 9.668-4.509l14.565 5.301c3.915 1.425 5.933 5.753 4.509 9.667-1.115 3.064-4.008 4.966-7.089 4.966z" fill="#ee6161"/></g></g><g><g><path d="m331.053 169.661c-3.331 0-6.378-2.223-7.281-5.592-1.078-4.024 1.309-8.16 5.333-9.238l14.972-4.012c4.026-1.08 8.161 1.309 9.238 5.333 1.078 4.024-1.309 8.16-5.333 9.238l-14.972 4.012c-.654.175-1.311.259-1.957.259z" fill="#ee6161"/></g></g><g><g><path d="m305.53 129.594c-1.711 0-3.432-.578-4.845-1.765-3.191-2.677-3.607-7.435-.929-10.627l9.963-11.873c2.677-3.191 7.435-3.608 10.627-.929 3.191 2.677 3.607 7.435.929 10.627l-9.963 11.873c-1.492 1.777-3.63 2.694-5.782 2.694z" fill="#ee6161"/></g></g></g><circle cx="256" cy="346.142" fill="#fec165" r="41.778"/><path d="m297.779 346.141c0 23.079-18.71 41.779-41.779 41.779-11.478 0-21.863-4.626-29.415-12.127 3.235.814 6.615 1.236 10.097 1.236 23.069 0 41.779-18.7 41.779-41.779 0-11.591-4.719-22.079-12.353-29.652 18.184 4.514 31.671 20.957 31.671 40.543z" fill="#fdb441"/><path d="m269.508 187.686c0-7.46-6.048-13.508-13.508-13.508s-13.508 6.048-13.508 13.508c0 4.726 2.432 8.88 6.108 11.293-.092.47-.143.955-.143 1.453v23.299c0 4.166 3.377 7.543 7.543 7.543s7.543-3.377 7.543-7.543v-23.299c0-.497-.051-.982-.143-1.453 3.676-2.414 6.108-6.567 6.108-11.293z" fill="#ce1b1b"/><g><path d="m256 .005-69.155-.005 5.967 24.481c1.571 6.446 7.346 10.983 13.982 10.983h49.206 49.207c6.635 0 12.41-4.536 13.982-10.983l5.967-24.481z" fill="#8d9ca8"/><path d="m325.154 0-5.965 24.48c-1.576 6.45-7.346 10.983-13.981 10.983h-22.801c6.635 0 12.405-4.533 13.981-10.983l5.966-24.48z" fill="#7a8c98"/></g><circle cx="256" cy="476.264" fill="#6e7f89" r="10.303"/><path d="m316.436 262.095h-123.824c-2.548 0-4.614-2.066-4.614-4.614v-13.122c0-11.393 9.235-20.628 20.628-20.628h91.797c11.393 0 20.628 9.235 20.628 20.628v13.122c0 2.548-2.066 4.614-4.615 4.614z" fill="#f79595"/><path d="m321.054 244.357v13.126c0 2.545-2.071 4.616-4.616 4.616h-20.843c2.555 0 4.616-2.071 4.616-4.616v-13.126c0-11.395-9.232-20.627-20.626-20.627h20.843c11.384.001 20.626 9.233 20.626 20.627z" fill="#f47c7c"/></g></svg>