<?xml version="1.0" encoding="UTF-8" standalone="no"?>
<!-- Generator: Adobe Illustrator 19.0.0, SVG Export Plug-In . SVG Version: 6.00 Build 0)  -->

<svg
   xmlns:dc="http://purl.org/dc/elements/1.1/"
   xmlns:cc="http://creativecommons.org/ns#"
   xmlns:rdf="http://www.w3.org/1999/02/22-rdf-syntax-ns#"
   xmlns:svg="http://www.w3.org/2000/svg"
   xmlns="http://www.w3.org/2000/svg"
   xmlns:sodipodi="http://sodipodi.sourceforge.net/DTD/sodipodi-0.dtd"
   xmlns:inkscape="http://www.inkscape.org/namespaces/inkscape"
   version="1.1"
   id="Capa_1"
   x="0px"
   y="0px"
   viewBox="0 0 512.533 512.533"
   xml:space="preserve"
   sodipodi:docname="marcador-de-posicion.svg"
   inkscape:export-filename="C:\Proyectos\scape-room\src\img\marcador-de-posicion.png"
   inkscape:export-xdpi="8.6160307"
   inkscape:export-ydpi="8.6160307"
   style="enable-background:new 0 0 512.533 512.533;"
   inkscape:version="0.92.4 (5da689c313, 2019-01-14)"><metadata
   id="metadata49"><rdf:RDF><cc:Work
       rdf:about=""><dc:format>image/svg+xml</dc:format><dc:type
         rdf:resource="http://purl.org/dc/dcmitype/StillImage" /><dc:title></dc:title></cc:Work></rdf:RDF></metadata><defs
   id="defs47" /><sodipodi:namedview
   pagecolor="#ffffff"
   bordercolor="#666666"
   borderopacity="1"
   objecttolerance="10"
   gridtolerance="10"
   guidetolerance="10"
   inkscape:pageopacity="0"
   inkscape:pageshadow="2"
   inkscape:window-width="1920"
   inkscape:window-height="1001"
   id="namedview45"
   showgrid="false"
   inkscape:zoom="0.65118614"
   inkscape:cx="204.67962"
   inkscape:cy="276.1336"
   inkscape:window-x="-9"
   inkscape:window-y="-9"
   inkscape:window-maximized="1"
   inkscape:current-layer="Capa_1" />
<path
   style="fill:#d84315;fill-opacity:1"
   d="M406.6,62.4c-83.2-83.2-217.6-83.2-299.733,0c-83.2,83.2-83.2,216.533,0,299.733l149.333,150.4  L405.533,363.2C488.733,280,488.733,145.6,406.6,62.4z"
   id="path2" />
<path
   style="fill:#F3F3F3;"
   d="M256.2,70.933c-77.867,0-141.867,62.933-141.867,141.867c0,77.867,62.933,141.867,141.867,141.867  c77.867,0,141.867-62.933,141.867-141.867S334.066,70.933,256.2,70.933z"
   id="path4" />


<g
   id="g14">
</g>
<g
   id="g16">
</g>
<g
   id="g18">
</g>
<g
   id="g20">
</g>
<g
   id="g22">
</g>
<g
   id="g24">
</g>
<g
   id="g26">
</g>
<g
   id="g28">
</g>
<g
   id="g30">
</g>
<g
   id="g32">
</g>
<g
   id="g34">
</g>
<g
   id="g36">
</g>
<g
   id="g38">
</g>
<g
   id="g40">
</g>
<g
   id="g42">
</g>
<path
   style="fill:#f3705b;fill-opacity:0.46864702;stroke-width:3.10874867"
   inkscape:connector-curvature="0"
   d="m 167.68597,268.43626 a 12.434995,12.434995 0 0 0 12.43499,12.43499 H 335.5584 a 12.434995,12.434995 0 0 0 12.43499,-12.43499 V 249.78377 H 167.68597 Z m 90.15372,-9.32625 a 6.2174974,6.2174974 0 1 1 -6.21751,6.21751 6.2174974,6.2174974 0 0 1 6.21751,-6.21751 z"
   id="path2-5" /><path
   style="fill:#f3705b;fill-opacity:0.47058824;stroke-width:3.10874867"
   inkscape:connector-curvature="0"
   d="m 226.7522,305.74125 h 62.17497 l -9.32624,-24.87 h -43.52249 z"
   id="path4-2" /><path
   style="fill:#f3705b;fill-opacity:0.47058824;stroke-width:3.10874867"
   inkscape:connector-curvature="0"
   d="m 217.42595,305.74125 a 6.2174974,6.2174974 0 0 0 -6.2175,6.21749 v 6.2175 h 93.26246 v -6.2175 a 6.2174974,6.2174974 0 0 0 -6.21749,-6.21749 z"
   id="path6" /><path
   id="path10"
   d="M 335.5584,134.76007 H 180.12096 a 15.562396,15.562396 0 0 0 -15.54374,15.54374 v 118.13245 a 15.562396,15.562396 0 0 0 15.54374,15.54375 h 51.47156 l -6.99469,18.65248 h -7.17188 a 9.3262461,9.3262461 0 0 0 -9.32625,9.32625 v 6.2175 a 3.1087487,3.1087487 0 0 0 3.10875,3.10875 h 93.26246 a 3.1087487,3.1087487 0 0 0 3.10875,-3.10875 v -6.2175 a 9.3262461,9.3262461 0 0 0 -9.32624,-9.32625 h -7.17188 l -6.99469,-18.65248 h 51.47155 a 15.562396,15.562396 0 0 0 15.54374,-15.54375 V 150.30381 A 15.562396,15.562396 0 0 0 335.5584,134.76007 Z m -155.43744,6.21749 H 335.5584 a 9.3262461,9.3262461 0 0 1 9.32625,9.32625 v 96.37121 H 170.79472 v -96.37121 a 9.3262461,9.3262461 0 0 1 9.32624,-9.32625 z m 121.24121,170.98118 v 3.10875 H 214.3172 v -3.10875 a 3.1087487,3.1087487 0 0 1 3.10875,-3.10874 h 80.82747 a 3.1087487,3.1087487 0 0 1 3.10875,3.10874 z m -16.92093,-9.32625 h -53.20312 l 6.99469,-18.65248 h 39.21375 z M 335.5584,277.76251 H 180.12096 a 9.3262461,9.3262461 0 0 1 -9.32624,-9.32625 v -15.54374 h 174.08993 v 15.54374 a 9.3262461,9.3262461 0 0 1 -9.32625,9.32625 z"
   inkscape:connector-curvature="0"
   style="fill:#d84315;fill-opacity:1;stroke-width:3.10874867" /><path
   id="path12"
   d="m 257.83969,256.00127 a 9.3262461,9.3262461 0 1 0 9.32624,9.32625 9.3262461,9.3262461 0 0 0 -9.32624,-9.32625 z m 0,12.43499 a 3.1087487,3.1087487 0 1 1 3.10874,-3.10874 3.1087487,3.1087487 0 0 1 -3.10874,3.10874 z"
   inkscape:connector-curvature="0"
   style="fill:#bf360c;fill-opacity:1;stroke-width:3.10874867" /></svg>