<?xml version="1.0" encoding="UTF-8" standalone="no"?>
<!-- Generator: Adobe Illustrator 19.0.0, SVG Export Plug-In . SVG Version: 6.00 Build 0)  -->

<svg
   xmlns:dc="http://purl.org/dc/elements/1.1/"
   xmlns:cc="http://creativecommons.org/ns#"
   xmlns:rdf="http://www.w3.org/1999/02/22-rdf-syntax-ns#"
   xmlns:svg="http://www.w3.org/2000/svg"
   xmlns="http://www.w3.org/2000/svg"
   xmlns:sodipodi="http://sodipodi.sourceforge.net/DTD/sodipodi-0.dtd"
   xmlns:inkscape="http://www.inkscape.org/namespaces/inkscape"
   version="1.1"
   id="Capa_1"
   x="0px"
   y="0px"
   viewBox="0 0 512.533 512.533"
   xml:space="preserve"
   sodipodi:docname="marcador-de-posicion.svg"
   inkscape:export-filename="C:\Proyectos\scape-room\src\img\greenMarker.png"
   inkscape:export-xdpi="8.6160307"
   inkscape:export-ydpi="8.6160307"
   style="enable-background:new 0 0 512.533 512.533;"
   inkscape:version="0.92.4 (5da689c313, 2019-01-14)"><metadata
   id="metadata49"><rdf:RDF><cc:Work
       rdf:about=""><dc:format>image/svg+xml</dc:format><dc:type
         rdf:resource="http://purl.org/dc/dcmitype/StillImage" /><dc:title /></cc:Work></rdf:RDF></metadata><defs
   id="defs47" /><sodipodi:namedview
   pagecolor="#ffffff"
   bordercolor="#666666"
   borderopacity="1"
   objecttolerance="10"
   gridtolerance="10"
   guidetolerance="10"
   inkscape:pageopacity="0"
   inkscape:pageshadow="2"
   inkscape:window-width="1920"
   inkscape:window-height="1001"
   id="namedview45"
   showgrid="false"
   inkscape:zoom="3.6836651"
   inkscape:cx="218.60476"
   inkscape:cy="247.69992"
   inkscape:window-x="-9"
   inkscape:window-y="-9"
   inkscape:window-maximized="1"
   inkscape:current-layer="Capa_1" />
<path
   style="fill:#4caf50;fill-opacity:1"
   d="M406.6,62.4c-83.2-83.2-217.6-83.2-299.733,0c-83.2,83.2-83.2,216.533,0,299.733l149.333,150.4  L405.533,363.2C488.733,280,488.733,145.6,406.6,62.4z"
   id="path2" />
<path
   style="fill:#F3F3F3;"
   d="M256.2,70.933c-77.867,0-141.867,62.933-141.867,141.867c0,77.867,62.933,141.867,141.867,141.867  c77.867,0,141.867-62.933,141.867-141.867S334.066,70.933,256.2,70.933z"
   id="path4" />


<g
   id="g14">
</g>
<g
   id="g16">
</g>
<g
   id="g18">
</g>
<g
   id="g20">
</g>
<g
   id="g22">
</g>
<g
   id="g24">
</g>
<g
   id="g26">
</g>
<g
   id="g28">
</g>
<g
   id="g30">
</g>
<g
   id="g32">
</g>
<g
   id="g34">
</g>
<g
   id="g36">
</g>
<g
   id="g38">
</g>
<g
   id="g40">
</g>
<g
   id="g42">
</g>
<path
   style="fill:#4caf50;stroke-width:3.4230001;fill-opacity:0.24092409"
   inkscape:connector-curvature="0"
   d="m 158.00022,265.09398 a 13.692001,13.692001 0 0 0 13.692,13.692 h 171.15001 a 13.692001,13.692001 0 0 0 13.692,-13.692 v -20.538 H 158.00022 Z m 99.26701,-10.269 a 6.8460004,6.8460004 0 1 1 -6.846,6.846 6.8460004,6.8460004 0 0 1 6.846,-6.846 z"
   id="path2-5" /><path
   style="fill:#4caf50;stroke-width:3.4230001;fill-opacity:0.23921569"
   inkscape:connector-curvature="0"
   d="m 223.03722,306.16998 h 68.46001 l -10.269,-27.384 h -47.92201 z"
   id="path4-2" /><path
   style="fill:#4caf50;stroke-width:3.4230001;fill-opacity:0.23921569"
   inkscape:connector-curvature="0"
   d="m 212.76822,306.16998 a 6.8460004,6.8460004 0 0 0 -6.846,6.846 v 6.846 h 102.69001 v -6.846 a 6.8460004,6.8460004 0 0 0 -6.846,-6.846 z"
   id="path6" /><path
   id="path10"
   d="M 342.84223,117.90497 H 171.69222 a 17.135539,17.135539 0 0 0 -17.115,17.115 v 130.07401 a 17.135539,17.135539 0 0 0 17.115,17.115 h 56.67462 l -7.70175,20.538 h -7.89687 a 10.269001,10.269001 0 0 0 -10.269,10.269 v 6.846 a 3.4230002,3.4230002 0 0 0 3.423,3.423 h 102.69001 a 3.4230002,3.4230002 0 0 0 3.423,-3.423 v -6.846 a 10.269001,10.269001 0 0 0 -10.269,-10.269 h -7.89686 l -7.70175,-20.538 h 56.67461 a 17.135539,17.135539 0 0 0 17.115,-17.115 V 135.01997 a 17.135539,17.135539 0 0 0 -17.115,-17.115 z m -171.15001,6.846 h 171.15001 a 10.269001,10.269001 0 0 1 10.269,10.269 V 241.13298 H 161.42322 V 135.01997 a 10.269001,10.269001 0 0 1 10.269,-10.269 z m 133.49701,188.26501 v 3.423 h -95.84401 v -3.423 a 3.4230002,3.4230002 0 0 1 3.423,-3.423 h 88.99801 a 3.4230002,3.4230002 0 0 1 3.423,3.423 z m -18.63139,-10.269 h -58.58123 l 7.70175,-20.538 h 43.17773 z m 56.28439,-27.384 H 171.69222 a 10.269001,10.269001 0 0 1 -10.269,-10.269 v -17.115 h 191.68801 v 17.115 a 10.269001,10.269001 0 0 1 -10.269,10.269 z"
   inkscape:connector-curvature="0"
   style="fill:#388e3c;stroke-width:3.4230001;fill-opacity:1" /><path
   id="path12"
   d="m 257.26723,251.40198 a 10.269001,10.269001 0 1 0 10.269,10.269 10.269001,10.269001 0 0 0 -10.269,-10.269 z m 0,13.692 a 3.4230002,3.4230002 0 1 1 3.423,-3.423 3.4230002,3.4230002 0 0 1 -3.423,3.423 z"
   inkscape:connector-curvature="0"
   style="fill:#388e3c;stroke-width:3.4230001;fill-opacity:1" /></svg>